# xmcd
#
# Track frame offsets:
#	150
#	10694
#	26990
#	39062
#	73115
#	83976
#	86222
#	106193
#	114422
#	127753
#	135162
#	151541
#	170329
#	181704
#	197322
#	225947
#	258980
#	279303
#	305517
#
# Disc length: 4396 seconds
#
# Revision: 0
# Processed by: cddbd v1.5.2PL0 Copyright (c) Steve Scherf et al.
# Submitted via: EasyCDDAExtractor 16.0.6.1
#
DISCID=d6112a13
DTITLE=Χορ. θεάτρου Σκάλας - Οθέλλος-Τζουζέπε Βέρντι
DYEAR=1976
DGENRE=Κλασική
TTITLE0=Esultate!
TTITLE1=Inaffia l'ugola! Trinca, tracanna!
TTITLE2=Già nella notte densa
TTITLE3=Quando narravi l'esule tua vita
TTITLE4=Non ti crucciar
TTITLE5=Vanne - la tuas meta già vedo
TTITLE6=Credo In un Dio crudel
TTITLE7=D'un uom che geme sotto il tuo disdegno
TTITLE8=Se inconscia contro te, sposo
TTITLE9=Desdemona rea!
TTITLE10=Ora e per sempre addio
TTITLE11=Era la notte
TTITLE12=Si, pel ciel marmoreo giuro!
TTITLE13=Dio ti giocondi
TTITLE14=Esterrefatta fisso
TTITLE15=Piangea cantando nell'erma landa
TTITLE16=Ave María, piena di grazia
TTITLE17=Chi e là? Otello?
TTITLE18=Niun mi tema
EXTD=
EXTT0=
EXTT1=
EXTT2=
EXTT3=
EXTT4=
EXTT5=
EXTT6=
EXTT7=
EXTT8=
EXTT9=
EXTT10=
EXTT11=
EXTT12=
EXTT13=
EXTT14=
EXTT15=
EXTT16=
EXTT17=
EXTT18=
PLAYORDER=
